<?xml version="1.0" encoding="UTF-8" standalone="no"?>
<svg
   width="346"
   height="394"
   viewBox="0 0 346 394"
   version="1.1"
   id="svg111"
   sodipodi:docname="ratar.svg"
   inkscape:version="1.4.4 (dcaf3e7d9e, 2026-05-05)"
   xmlns:inkscape="http://www.inkscape.org/namespaces/inkscape"
   xmlns:sodipodi="http://sodipodi.sourceforge.net/DTD/sodipodi-0.dtd"
   xmlns="http://www.w3.org/2000/svg"
   xmlns:svg="http://www.w3.org/2000/svg">
  <defs
     id="defs111" />
  <sodipodi:namedview
     id="namedview111"
     pagecolor="#ffffff"
     bordercolor="#000000"
     borderopacity="0.25"
     inkscape:showpageshadow="2"
     inkscape:pageopacity="0.0"
     inkscape:pagecheckerboard="0"
     inkscape:deskcolor="#d1d1d1"
     inkscape:zoom="2"
     inkscape:cx="93.25"
     inkscape:cy="213"
     inkscape:window-width="2560"
     inkscape:window-height="1371"
     inkscape:window-x="0"
     inkscape:window-y="0"
     inkscape:window-maximized="1"
     inkscape:current-layer="g90"
     showgrid="false" />
  <g
     fill="none"
     stroke="#000000"
     stroke-linecap="butt"
     stroke-linejoin="round"
     id="g111">
    <g
       stroke-width="5.9"
       id="g90">
      <path
         d="m 123.6071,181.15829 v 99.6354"
         id="path1"
         sodipodi:nodetypes="cc"
         style="stroke-width:3.34311" />
      <path
         d="m 65.27275,280.45809 223.5744,0.38531"
         id="path2"
         style="stroke-width:3.34311" />
      <path
         d="m 79.41012,280.65074 0.19265,0.18699"
         id="path3"
         style="stroke-width:3.34311" />
      <path
         d="m 79.41012,280.65074 0.19265,-0.18699"
         id="path4"
         style="stroke-width:3.34311" />
      <path
         d="m 79.02481,280.50471 0.57796,-55.38351 96.57942,-96.47805"
         id="path5"
         sodipodi:nodetypes="ccc"
         style="stroke-width:3.34311" />
      <path
         d="m 79.60277,280.83773 0.18699,-0.18699"
         id="path6"
         style="stroke-width:3.34311" />
      <path
         d="m 79.60277,280.46375 0.18699,0.18699"
         id="path7"
         style="stroke-width:3.34311" />
      <path
         d="m 102.07524,280.65074 0.19265,0.18699"
         id="path8"
         style="stroke-width:3.34311" />
      <path
         d="m 102.07524,280.65074 0.19265,-0.18699"
         id="path9"
         style="stroke-width:3.34311" />
      <path
         d="m 198.00803,150.57181 -95.36617,100.42729 -0.37397,1.13326 -0.24932,28.98002"
         id="path11"
         sodipodi:nodetypes="cccc"
         style="stroke-width:3.34311" />
      <path
         d="m 102.26789,280.83773 0.18699,-0.18699"
         id="path12"
         style="stroke-width:3.34311" />
      <path
         d="m 102.26789,280.46375 0.18699,0.18699"
         id="path13"
         style="stroke-width:3.34311" />
      <path
         d="m 122.85348,232.10772 0.18699,-0.18699"
         id="path14"
         style="stroke-width:3.34311" />
      <path
         d="m 122.85348,183.19073 0.18699,-0.18699"
         id="path15"
         style="stroke-width:3.34311" />
      <path
         d="m 123.42011,280.65074 0.18699,0.18699"
         id="path16"
         style="stroke-width:3.34311" />
      <path
         d="m 123.42011,280.65074 0.18699,-0.18699"
         id="path17"
         style="stroke-width:3.34311" />
      <path
         d="m 123.6071,280.83773 0.19265,-0.18699"
         id="path18"
         style="stroke-width:3.34311" />
      <path
         d="m 123.6071,280.46375 0.19265,0.18699"
         id="path19"
         style="stroke-width:3.34311" />
      <path
         d="m 123.98674,227.95434 0.18699,-0.18699"
         id="path20"
         style="stroke-width:3.34311" />
      <path
         d="m 123.98674,227.5747 0.18699,0.19265"
         id="path22"
         style="stroke-width:3.34311" />
      <path
         d="m 150.43127,154.10571 v -0.37964"
         id="path26"
         style="stroke-width:3.34311" />
      <path
         d="m 150.43127,154.10571 h 0.18698"
         id="path27"
         style="stroke-width:3.34311" />
      <path
         d="m 150.43127,153.91306 21.71885,21.53186 0.56663,1.32591 0.75361,0.75362"
         id="path28"
         style="stroke-width:3.34311" />
      <path
         d="m 150.43127,153.91306 h 0.18698"
         id="path29"
         style="stroke-width:3.34311" />
      <path
         d="m 150.61825,154.10571 v -0.19265"
         id="path30"
         style="stroke-width:3.34311" />
      <path
         d="m 172.15012,183.19073 0.18699,0.18698"
         id="path34"
         style="stroke-width:3.34311" />
      <path
         d="m 172.15012,183.19073 0.18699,-0.18699"
         id="path35"
         style="stroke-width:3.34311" />
      <path
         d="m 172.33711,280.65074 0.19265,0.18699"
         id="path36"
         style="stroke-width:3.34311" />
      <path
         d="m 172.33711,280.65074 0.19265,-0.18699"
         id="path37"
         style="stroke-width:3.34311" />
      <path
         d="M 172.71108,281.16904 172.33711,177.28181"
         id="path38"
         sodipodi:nodetypes="cc"
         style="stroke-width:3.34311" />
      <path
         d="m 172.52976,280.83773 0.18699,-0.18699"
         id="path39"
         style="stroke-width:3.34311" />
      <path
         d="m 172.52976,280.46375 0.18699,0.18699"
         id="path40"
         style="stroke-width:3.34311" />
      <path
         d="m 172.71675,178.84469 0.18698,0.19265"
         id="path41"
         style="stroke-width:3.34311" />
      <path
         d="m 172.71675,178.84469 h 0.18698"
         id="path42"
         style="stroke-width:3.34311" />
      <path
         d="m 175.05898,127.46698 25.23555,25.69246"
         id="path54"
         sodipodi:nodetypes="cc"
         style="stroke-width:3.34311" />
      <path
         d="m 200.10188,280.65074 0.19265,0.18699"
         id="path59"
         style="stroke-width:3.34311" />
      <path
         d="m 200.10188,280.65074 0.19265,-0.18699"
         id="path60"
         style="stroke-width:3.34311" />
      <path
         d="m 200.10188,153.34643 v -0.37397"
         id="path61"
         style="stroke-width:3.34311" />
      <path
         d="m 200.10188,153.34643 h 0.19265"
         id="path62"
         style="stroke-width:3.34311" />
      <path
         d="m 200.10188,153.15944 24.74464,24.55199"
         id="path63"
         style="stroke-width:3.34311" />
      <path
         d="m 200.10188,153.15944 h 0.19265"
         id="path64"
         style="stroke-width:3.34311" />
      <path
         d="m 199.58625,281.01039 0.70828,-78.36732 0.56663,-0.94061 23.99248,-24.55483"
         id="path65"
         sodipodi:nodetypes="cccc"
         style="stroke-width:3.34311" />
      <path
         d="m 200.29453,280.83773 0.18699,-0.18699"
         id="path66"
         style="stroke-width:3.34311" />
      <path
         d="m 200.29453,280.46375 0.18699,0.18699"
         id="path67"
         style="stroke-width:3.34311" />
      <path
         d="m 200.29453,153.34643 v -0.18699"
         id="path68"
         style="stroke-width:3.34311" />
      <path
         d="m 221.25977,280.65074 0.18698,0.18699"
         id="path69"
         style="stroke-width:3.34311" />
      <path
         d="m 221.25977,280.65074 0.18698,-0.18699"
         id="path70"
         style="stroke-width:3.34311" />
      <path
         d="m 221.04445,280.38443 0.4023,-51.48382 0.18699,-0.56663 27.26664,-26.23613"
         id="path71"
         sodipodi:nodetypes="cccc"
         style="stroke-width:3.34311" />
      <path
         d="m 221.44675,280.83773 0.18699,-0.18699"
         id="path72"
         style="stroke-width:3.34311" />
      <path
         d="m 221.44675,280.46375 0.18699,0.18699"
         id="path73"
         style="stroke-width:3.34311" />
      <path
         d="m 224.65953,177.90409 v -0.37964"
         id="path74"
         style="stroke-width:3.34311" />
      <path
         d="m 224.65953,177.90409 h 0.18699"
         id="path75"
         style="stroke-width:3.34311" />
      <path
         d="M 224.65953,177.71143 249.86378,203.232"
         id="path76"
         sodipodi:nodetypes="cc"
         style="stroke-width:3.34311" />
      <path
         d="m 224.65953,177.71143 h 0.18699"
         id="path77"
         style="stroke-width:3.34311" />
      <path
         d="m 224.84652,177.90409 v -0.19266"
         id="path78"
         style="stroke-width:3.34311" />
      <path
         d="m 248.26526,203.20969 h 0.19265"
         id="path79"
         style="stroke-width:3.34311" />
      <path
         d="m 249.02454,280.65074 0.18699,0.18699"
         id="path82"
         style="stroke-width:3.34311" />
      <path
         d="m 249.02454,280.65074 0.18699,-0.18699"
         id="path83"
         style="stroke-width:3.34311" />
      <path
         d="m 249.21153,280.83773 0.18698,-0.18699"
         id="path84"
         style="stroke-width:3.34311" />
      <path
         d="m 249.21153,280.46375 0.18698,0.18699"
         id="path85"
         style="stroke-width:3.34311" />
      <path
         d="m 270.36375,280.65074 0.19265,0.18699"
         id="path86"
         style="stroke-width:3.34311" />
      <path
         d="m 270.36375,280.65074 0.19265,-0.18699"
         id="path87"
         style="stroke-width:3.34311" />
      <path
         d="m 270.43174,280.71307 0.12466,-52.00512 0.37398,-0.75361 5.2923,-5.28664 11.33256,-10.76593"
         id="path88"
         sodipodi:nodetypes="ccccc"
         style="stroke-width:3.34311" />
      <path
         d="m 270.5564,280.83773 0.18699,-0.18699"
         id="path89"
         style="stroke-width:3.34311" />
      <path
         d="m 270.5564,280.46375 0.18699,0.18699"
         id="path90"
         style="stroke-width:3.34311" />
      <path
         d="m 249.01887,281.21737 0.34291,-79.1903"
         id="path38-9"
         sodipodi:nodetypes="cc"
         style="stroke-width:3.34311" />
    </g>
  </g>
</svg>
