M48
; DRILL file KiCad 10.0.5 date 2026-08-08T11:32:21
; FORMAT={-:-/ absolute / metric / decimal}
; #@! TF.CreationDate,2026-08-08T11:32:21-04:00
; #@! TF.GenerationSoftware,Kicad,Pcbnew,10.0.5
; #@! TF.FileFunction,Plated,1,2,PTH
FMAT,2
METRIC
; #@! TA.AperFunction,Plated,PTH,ComponentDrill
T1C0.889
; #@! TA.AperFunction,Plated,PTH,ComponentDrill
T2C1.000
%
G90
G05
T1
X67.358Y-65.551
X67.358Y-80.791
X69.897Y-65.551
X69.897Y-80.791
X72.438Y-65.551
X72.438Y-80.791
X74.977Y-65.551
X74.977Y-80.791
X77.517Y-65.551
X77.517Y-80.791
X80.057Y-65.551
X80.057Y-80.791
X82.597Y-65.551
X82.597Y-80.791
T2
X57.73Y-69.361
X57.73Y-71.901
X57.73Y-74.441
X57.73Y-76.981
X60.27Y-69.361
X60.27Y-71.901
X60.27Y-74.441
X60.27Y-76.981
M30
