%TF.GenerationSoftware,KiCad,Pcbnew,10.0.5*%
%TF.CreationDate,2026-08-08T11:32:26-04:00*%
%TF.ProjectId,RF-HAT,52462d48-4154-42e6-9b69-6361645f7063,rev?*%
%TF.SameCoordinates,Original*%
%TF.FileFunction,Copper,L2,Bot*%
%TF.FilePolarity,Positive*%
%FSLAX46Y46*%
G04 Gerber Fmt 4.6, Leading zero omitted, Abs format (unit mm)*
G04 Created by KiCad (PCBNEW 10.0.5) date 2026-08-08 11:32:26*
%MOMM*%
%LPD*%
G01*
G04 APERTURE LIST*
%TA.AperFunction,ComponentPad*%
%ADD10C,1.700000*%
%TD*%
%TA.AperFunction,ComponentPad*%
%ADD11R,1.700000X1.700000*%
%TD*%
%TA.AperFunction,ComponentPad*%
%ADD12C,1.524000*%
%TD*%
%TA.AperFunction,Conductor*%
%ADD13C,0.200000*%
%TD*%
G04 APERTURE END LIST*
D10*
%TO.P,J1,8,Pin_8_8*%
%TO.N,Net-(J1-Pin_8)*%
X60270000Y-76981000D03*
%TO.P,J1,7,Pin_7_7*%
%TO.N,Net-(J1-Pin_7)*%
X57730000Y-76981000D03*
%TO.P,J1,6,Pin_6_6*%
%TO.N,Net-(J1-Pin_6)*%
X60270000Y-74441000D03*
%TO.P,J1,5,Pin_5_5*%
%TO.N,Net-(J1-Pin_5)*%
X57730000Y-74441000D03*
%TO.P,J1,4,Pin_4_4*%
%TO.N,Net-(J1-Pin_4)*%
X60270000Y-71901000D03*
%TO.P,J1,3,Pin_3_3*%
%TO.N,Net-(J1-Pin_3)*%
X57730000Y-71901000D03*
%TO.P,J1,2,Pin_2_2*%
%TO.N,Net-(J1-Pin_2)*%
X60270000Y-69361000D03*
D11*
%TO.P,J1,1,Pin_1_1*%
%TO.N,Net-(J1-Pin_1)*%
X57730000Y-69361000D03*
%TD*%
D12*
%TO.P,U1,14,VBUS_14*%
%TO.N,unconnected-(U1-VBUS-Pad14)_1*%
X82597500Y-80791000D03*
%TO.P,U1,13,GND_13*%
%TO.N,Net-(J1-Pin_1)*%
X80057500Y-80791000D03*
%TO.P,U1,12,3V3_OUT_12*%
%TO.N,Net-(J1-Pin_2)*%
X77517500Y-80791000D03*
%TO.P,U1,11,D10_11*%
%TO.N,Net-(J1-Pin_6)*%
X74977500Y-80791000D03*
%TO.P,U1,10,D9_10*%
%TO.N,Net-(J1-Pin_7)*%
X72437500Y-80791000D03*
%TO.P,U1,9,D8_9*%
%TO.N,Net-(J1-Pin_5)*%
X69897500Y-80791000D03*
%TO.P,U1,8,D7_8*%
%TO.N,unconnected-(U1-D7-Pad8)_1*%
X67357500Y-80791000D03*
%TO.P,U1,7,D6_7*%
%TO.N,unconnected-(U1-D6-Pad7)*%
X67357500Y-65551000D03*
%TO.P,U1,6,D5_6*%
%TO.N,unconnected-(U1-D5-Pad6)*%
X69897500Y-65551000D03*
%TO.P,U1,5,D4_5*%
%TO.N,unconnected-(U1-D4-Pad5)*%
X72437500Y-65551000D03*
%TO.P,U1,4,D3_4*%
%TO.N,Net-(J1-Pin_4)*%
X74977500Y-65551000D03*
%TO.P,U1,3,D2_3*%
%TO.N,Net-(J1-Pin_3)*%
X77517500Y-65551000D03*
%TO.P,U1,2,D1_2*%
%TO.N,Net-(J1-Pin_8)*%
X80057500Y-65551000D03*
%TO.P,U1,1,D0_1*%
%TO.N,unconnected-(U1-D0-Pad1)_1*%
X82597500Y-65551000D03*
%TD*%
%TO.N,Net-(J1-Pin_7)*%
D13*
X72437500Y-80791000D02*
X67237500Y-75591000D01*
X59120000Y-75591000D02*
X57730000Y-76981000D01*
X67237500Y-75591000D02*
X59120000Y-75591000D01*
%TO.N,Net-(J1-Pin_6)*%
X74977500Y-80791000D02*
X68627500Y-74441000D01*
X68627500Y-74441000D02*
X60270000Y-74441000D01*
%TO.N,Net-(J1-Pin_1)*%
X80057500Y-80791000D02*
X67477500Y-68211000D01*
X67477500Y-68211000D02*
X58880000Y-68211000D01*
X58880000Y-68211000D02*
X57730000Y-69361000D01*
%TO.N,Net-(J1-Pin_2)*%
X77517500Y-80791000D02*
X66087500Y-69361000D01*
X66087500Y-69361000D02*
X60270000Y-69361000D01*
%TD*%
M02*
